<svg xmlns="http://www.w3.org/2000/svg" width="960" height="960" viewBox="0 0 720 720"><path d="M398.7 360a38.7 38.7 0 1 1-38.7-38.7 38.7 38.7 0 0 1 38.7 38.7zm48.5-41.2v82.5a46.1 46.1 0 0 1-45.9 45.9h-82.5a46.1 46.1 0 0 1-45.9-45.9v-82.5a46.1 46.1 0 0 1 45.9-45.9h82.5a46 46 0 0 1 45.9 45.9zM416.5 360a56.5 56.5 0 1 0-56.5 56.5 56.5 56.5 0 0 0 56.5-56.5zm7.9-55.9a8.6 8.6 0 1 0-8.6 8.6 8.6 8.6 0 0 0 8.6-8.6zM603.7 360c0 134.6-109.1 243.7-243.7 243.7S116.3 494.6 116.3 360 225.4 116.3 360 116.3 603.7 225.4 603.7 360zm-138.8-41.2a63.8 63.8 0 0 0-63.7-63.7h-82.5a63.7 63.7 0 0 0-63.6 63.7v82.5a63.6 63.6 0 0 0 63.6 63.6h82.5a63.7 63.7 0 0 0 63.6-63.7v-82.4z"/></svg>