<svg xmlns="http://www.w3.org/2000/svg" width="960" height="960" viewBox="0 0 720 720"><path d="M360 116.3c-134.6 0-243.7 109.1-243.7 243.7S225.4 603.7 360 603.7 603.7 494.6 603.7 360 494.6 116.3 360 116.3zm91.6 195.6a8.7 8.7 0 0 0-3.3 7.2c-1.4 50.5-22.6 89.9-66.6 115.7-21.8 12.8-45.8 16.9-70.9 15.5a126.9 126.9 0 0 1-58.9-18.1l-2.7-1.8c25 1.9 46.7-4 66.8-19.1-10.3-.8-18.9-3.6-26.5-9.3a46.5 46.5 0 0 1-16.1-22.4h19.1c-24.8-11.9-36.4-26.8-35-45.2l18.8 5.2.6-.8c-19.7-16.7-24.4-36.6-13.5-60.9 25 29.2 56 45.1 94 47.9a21.6 21.6 0 0 0 0-3.6c-2.7-19.4 6.2-37.7 23.1-46.9a45.2 45.2 0 0 1 52.3 6c2.5 2.2 4.6 2.8 7.6 1.8l23.8-8.6c-3.2 9.6-9.7 17-18.1 23l.5 1 23.3-6.3.8.8c-6.2 6.2-12.4 12.8-19.1 18.9z"/></svg>